Coordinates
version=1
nRows=12
nColumns=24
inDegrees=yes

Units are S.I. units (second, meters, Newtons, ...)
Angles are in degrees.

endheader
time	pelvis_tilt	pelvis_list	pelvis_rotation	pelvis_tx	pelvis_ty	pelvis_tz	hip_flexion_r	hip_adduction_r	hip_rotation_r	knee_angle_r	ankle_angle_r	subtalar_angle_r	mtp_angle_r	hip_flexion_l	hip_adduction_l	hip_rotation_l	knee_angle_l	ankle_angle_l	subtalar_angle_l	mtp_angle_l	lumbar_extension	lumbar_bending	lumbar_rotation
      4.71500000	    -11.03704171	      1.92519228	     -5.52136513	     -1.74623063	     -0.02840439	     -0.26736575	     -4.31802020	      0.58862011	     10.47226107	    -16.05267425	      7.58315497	      5.56314459	     19.42705515	     34.15807146	     -1.24761038	      0.41228704	     -9.29499533	     -2.18107173	     -1.07899819	      7.08085752	      7.35893371	     -1.58889340	     12.99502546
      4.72000000	    -11.12178003	      2.11611517	     -5.53906073	     -1.73918037	     -0.02928868	     -0.26818755	     -4.30185343	      0.25721700	     10.14418904	    -16.70774200	      7.40813304	      6.35904812	     19.75528558	     34.15925997	     -0.99674714	      0.30718734	     -9.78303778	     -2.50864308	     -1.17354648	      7.27670188	      7.64367851	     -1.77657186	     12.99520398
      4.72500000	    -11.23534769	      2.34651669	     -5.46571502	     -1.73203532	     -0.03016453	     -0.26909598	     -4.26766618	     -0.11315825	      9.76396194	    -17.34386760	      7.14806215	      7.10417186	     20.13884523	     34.22007416	     -0.66362961	      0.23972769	    -10.32866911	     -2.92237003	     -1.24329805	      7.55220258	      7.97748522	     -2.02823866	     12.94821125
      4.73000000	    -11.33187247	      2.52605399	     -5.38341959	     -1.72508843	     -0.03095015	     -0.27013206	     -4.18942806	     -0.45392209	      9.23081046	    -18.04584488	      6.79134581	      8.02270338	     20.79825119	     34.30808851	     -0.36060140	      0.22925071	    -10.93859477	     -3.47774389	     -1.45718688	      8.05655431	      8.24344076	     -2.21542701	     12.84992792
      4.73500000	    -11.45173582	      2.83605887	     -5.21981679	     -1.71794494	     -0.03166423	     -0.27111701	     -4.11512451	     -0.90877641	      8.80857123	    -18.71992372	      6.35211008	      8.72341568	     21.26712447	     34.42042882	      0.09670696	      0.25665617	    -11.57082055	     -3.97914627	     -1.50001041	      8.39289012	      8.58206960	     -2.58412061	     12.72163159
      4.74000000	    -11.54886374	      3.06385616	     -5.04739044	     -1.71110187	     -0.03224570	     -0.27229943	     -3.97205821	     -1.31694836	      8.13130309	    -19.49452941	      5.79370159	      9.68985130	     22.10540204	     34.56390682	      0.51026553	      0.37962138	    -12.27667971	     -4.58896571	     -1.74622258	      8.87009101	      8.82186131	     -2.83843020	     12.55164157
      4.74500000	    -11.66095486	      3.41139816	     -4.80938510	     -1.70409952	     -0.03273706	     -0.27338740	     -3.82583101	     -1.83396332	      7.52189958	    -20.26546347	      5.18275463	     10.53961104	     22.78283506	     34.72048622	      1.06256558	      0.58861874	    -13.01393326	     -5.07086153	     -1.78055678	      9.16819652	      9.11648797	     -3.27442119	     12.29831523
      4.75000000	    -11.75924518	      3.72653805	     -4.51339440	     -1.69723115	     -0.03309851	     -0.27465435	     -3.65969556	     -2.34298286	      6.75473813	    -21.06163440	      4.40704031	     11.48127807	     23.69283893	     34.90982517	      1.64785005	      0.91680842	    -13.83767495	     -5.58034359	     -1.93742318	      9.36714515	      9.35571934	     -3.66545085	     12.11304173
      4.75500000	    -11.85103953	      4.08930994	     -4.17732829	     -1.69032326	     -0.03335120	     -0.27587857	     -3.47951828	     -2.90243859	      5.97032020	    -21.89561962	      3.53298876	     12.41136166	     24.59373745	     35.08963344	      2.30667461	      1.33747384	    -14.68792047	     -5.97748197	     -1.97799137	      9.40423742	      9.59229915	     -4.13611280	     11.85682485
      4.76000000	    -11.94391501	      4.49840471	     -3.82026372	     -1.68338961	     -0.03347883	     -0.27713895	     -3.28203583	     -3.51999629	      5.21243495	    -22.70724861	      2.31916596	     13.19878528	     26.16773012	     35.24513811	      3.05518829	      1.93078123	    -15.52462230	     -6.36333360	     -2.21509822	      9.03996475	      9.82844331	     -4.66763545	     11.54780280
      4.76500000	    -11.98332354	      4.82820997	     -3.43499025	     -1.67656670	     -0.03353534	     -0.27832907	     -3.08026301	     -4.06768661	      4.28862689	    -23.68163293	      1.33248350	     14.28183426	     26.76098933	     35.39147428	      3.72495731	      2.41561812	    -16.46049630	     -6.50004680	     -1.96560594	      8.91998533	      9.96648863	     -5.13256529	     11.26670608
      4.77000000	    -12.05517502	      5.23936426	     -3.01584560	     -1.66955279	     -0.03349036	     -0.27963921	     -2.85023802	     -4.72081629	      3.37343806	    -24.59963981	     -0.06597010	     15.18139863	     28.08958643	     35.49268146	      4.54698748	      3.15096644	    -17.30001295	     -6.69935288	     -2.18194685	      8.11903185	     10.17431775	     -5.68618589	     10.93615059
